<?xml version="1.0" encoding="utf-8"?>
<!-- Generator: Adobe Illustrator 22.1.0, SVG Export Plug-In . SVG Version: 6.00 Build 0)  -->
<svg version="1.1" id="Layer_1" xmlns="http://www.w3.org/2000/svg" xmlns:xlink="http://www.w3.org/1999/xlink" x="0px" y="0px"
	 viewBox="0 0 522.4 197.2" style="enable-background:new 0 0 522.4 197.2;" xml:space="preserve">
<g>
	<g>
		<path fill="#4277A6" d="M429.3,18.9v8.3c0,0-13.8,3.8-25.5,19.2c-11.6,15.4-10.9,34.7-7,46c3.9,11.2,14.3,32.6,45.9,36.6v-17.5
			c0,0-23.9-1.5-30.5-27.8h9.1c0,0,4.8,18,23.8,18.7c19.1,0.8,29.2-16.4,26.9-29.7c-2.3-13.2-13.4-21.1-21.3-21.5v13.5
			c0,0,6.6,1.7,8.3,10c0,0,1.3,9.3-7.4,13.3c-8.8,4-14.6-2.3-16.3-5.5c-1.6-3.2-4.2-13.6,7.5-18V51.1c0,0-13.8,0.1-21.1,17.2h-9
			c0,0,2.2-10.8,12.1-18.9c0,0,12.9-11.7,32-6.1c19.1,5.5,24.7,24.5,24.6,28.9h17.4c0,0-0.2-9-5-18.4c-4.8-9.4-13.6-20.1-26.8-25.4
			c0,0-11.5-5.1-24.2-4V0c0,0-18.7-0.3-38.2,12.4c-19.5,12.7-28.5,33.1-30,37.8c0,0-8.6,23.1-1.6,46.6c0,0,6.1,27.3,34,44.4
			c0,0,15.9,10.3,35.7,10.8v-16.4c0,0-23,0.9-41.4-20.6c0,0-12-12.6-13.9-30.1c-1.9-17.5,0.2-35.5,20.3-54.4
			C407.7,30.4,420.1,21.1,429.3,18.9"/>
		<path fill="#4277A6" d="M450.6,0v16.6c0,0,16,0.5,30.9,11.3c14.9,10.8,21.4,27.3,22.9,34.2c1.4,6.9,2.9,17.9-1.2,31.7
			c-4.1,13.8-16.3,32-39.7,39.4v-7c0,0,16.7-4.4,27.4-21.7c0,0,6.9-10.2,7.8-22.5h-17.5c0,0-0.4,9.2-8.6,18.1c0,0-8,10-22,11.4
			l-0.2,40.2c0,0,13,0.6,28.7-7.3c15.7-7.8,28.1-19.1,35.6-35.7c7.5-16.6,8.9-30.3,6.8-43c-2.1-12.7-5.5-23.5-14.3-35
			C498.5,19.4,481.2,2.1,450.6,0"/>
	</g>
	<g>
		<path fill="#00273F" d="M16.6,196.3c-1,0.5-2.1,0.7-3.2,0.7c-1.3,0-2.4-0.2-3.2-0.6c-0.8-0.4-1.4-0.9-1.9-1.5
			c-0.4-0.6-0.7-1.2-0.9-1.8c-0.1-0.6-0.2-1.1-0.2-1.5c0-0.8,0.1-1.5,0.4-2c0.2-0.6,0.6-1.1,1-1.6c0.4-0.5,0.9-0.9,1.5-1.3
			c0.6-0.4,1.2-0.7,1.8-1.1c-0.3-0.4-0.5-0.8-0.8-1.1c-0.3-0.3-0.5-0.7-0.7-1.1c-0.2-0.4-0.4-0.7-0.5-1.1c-0.1-0.4-0.2-0.8-0.2-1.3
			c0-0.5,0.1-1,0.3-1.5c0.2-0.5,0.5-0.9,0.9-1.3c0.4-0.4,0.8-0.7,1.4-0.9c0.6-0.2,1.2-0.3,1.9-0.3c0.6,0,1.2,0.1,1.8,0.2
			c0.6,0.2,1.1,0.4,1.5,0.8c0.4,0.3,0.8,0.8,1.1,1.3c0.3,0.5,0.4,1.1,0.4,1.8c0,0.6-0.1,1.1-0.3,1.6s-0.5,1-0.8,1.4
			c-0.3,0.4-0.7,0.8-1.2,1.1c-0.4,0.3-0.9,0.6-1.4,0.9l3.6,4.3c0.4-1,0.6-2.1,0.6-3.1h2.2c-0.1,0.6-0.1,1.1-0.2,1.5
			c-0.1,0.4-0.1,0.8-0.2,1.1c-0.1,0.3-0.2,0.7-0.4,1s-0.3,0.7-0.5,1.2l3.8,4.4h-3.1l-2.1-2.5C18.4,195.2,17.6,195.9,16.6,196.3z
			 M11.9,188c-0.4,0.3-0.8,0.6-1.1,0.9c-0.3,0.3-0.6,0.7-0.7,1.2c-0.2,0.4-0.3,0.9-0.3,1.5c0,0.5,0.1,1,0.3,1.4
			c0.2,0.4,0.5,0.8,0.8,1c0.3,0.3,0.7,0.5,1.2,0.7c0.5,0.2,0.9,0.2,1.4,0.2c0.9,0,1.7-0.2,2.4-0.6c0.7-0.4,1.3-1,1.8-1.7l-4.5-5.4
			C12.7,187.5,12.3,187.7,11.9,188z M14.8,184c0.3-0.2,0.6-0.5,0.9-0.7c0.3-0.3,0.5-0.6,0.6-0.9c0.2-0.3,0.2-0.7,0.2-1.1
			c0-0.6-0.2-1.1-0.6-1.5c-0.4-0.4-1-0.6-1.7-0.6c-0.6,0-1.1,0.2-1.5,0.5c-0.5,0.3-0.7,0.9-0.7,1.6c0,0.3,0.1,0.6,0.2,0.9
			c0.1,0.3,0.3,0.6,0.5,0.9c0.2,0.3,0.4,0.6,0.6,0.8c0.2,0.3,0.4,0.6,0.7,0.8C14.2,184.4,14.5,184.2,14.8,184z"/>
		<path fill="#00273F" d="M48.6,177l7.7,19.7h-2.9l-2.2-5.9h-8.3l-2.2,5.9H38l7.7-19.7H48.6z M50.4,188.6l-3.3-9.2h-0.1l-3.3,9.2H50.4z
			"/>
		<path fill="#00273F" d="M71.5,179.7c-0.9-0.6-2-1-3.4-1c-0.6,0-1.1,0.1-1.6,0.2c-0.5,0.1-1,0.3-1.4,0.6c-0.4,0.3-0.7,0.6-1,1
			c-0.2,0.4-0.4,1-0.4,1.6c0,0.6,0.2,1.1,0.5,1.5c0.4,0.4,0.8,0.7,1.4,0.9c0.6,0.2,1.3,0.4,2,0.6c0.8,0.2,1.5,0.3,2.3,0.5
			c0.8,0.2,1.5,0.4,2.3,0.6c0.8,0.2,1.4,0.6,2,1c0.6,0.4,1.1,1,1.4,1.6c0.4,0.6,0.5,1.5,0.5,2.4c0,1-0.2,1.9-0.7,2.7
			s-1.1,1.4-1.8,1.8c-0.7,0.5-1.6,0.8-2.5,1c-0.9,0.2-1.8,0.3-2.7,0.3c-1.1,0-2.1-0.1-3.1-0.4c-1-0.3-1.8-0.7-2.6-1.3
			c-0.7-0.6-1.3-1.3-1.8-2.2c-0.4-0.9-0.6-1.9-0.6-3.1H63c0,0.8,0.2,1.5,0.5,2.1c0.3,0.6,0.7,1.1,1.3,1.5c0.5,0.4,1.1,0.7,1.8,0.9
			c0.7,0.2,1.4,0.3,2.2,0.3c0.6,0,1.2-0.1,1.8-0.2c0.6-0.1,1.1-0.3,1.6-0.6c0.5-0.3,0.9-0.6,1.2-1.1c0.3-0.5,0.4-1,0.4-1.8
			c0-0.7-0.2-1.2-0.5-1.7c-0.4-0.4-0.8-0.8-1.4-1c-0.6-0.3-1.3-0.5-2-0.6c-0.8-0.2-1.5-0.3-2.3-0.5c-0.8-0.2-1.5-0.4-2.3-0.6
			c-0.8-0.2-1.4-0.5-2-0.9c-0.6-0.4-1.1-0.9-1.4-1.5s-0.5-1.3-0.5-2.2c0-1,0.2-1.9,0.6-2.6c0.4-0.7,0.9-1.3,1.6-1.8
			c0.7-0.5,1.4-0.8,2.3-1c0.9-0.2,1.7-0.3,2.6-0.3c1,0,1.9,0.1,2.8,0.4c0.9,0.2,1.6,0.6,2.3,1.1c0.7,0.5,1.2,1.2,1.5,1.9
			c0.4,0.8,0.6,1.7,0.6,2.8H73C72.9,181.4,72.4,180.4,71.5,179.7z"/>
		<path fill="#00273F" d="M92.7,179.7c-0.9-0.6-2-1-3.4-1c-0.6,0-1.1,0.1-1.6,0.2c-0.5,0.1-1,0.3-1.4,0.6c-0.4,0.3-0.7,0.6-1,1
			c-0.2,0.4-0.4,1-0.4,1.6c0,0.6,0.2,1.1,0.5,1.5c0.4,0.4,0.8,0.7,1.4,0.9c0.6,0.2,1.3,0.4,2,0.6c0.8,0.2,1.5,0.3,2.3,0.5
			c0.8,0.2,1.5,0.4,2.3,0.6c0.8,0.2,1.4,0.6,2,1c0.6,0.4,1.1,1,1.4,1.6c0.4,0.6,0.5,1.5,0.5,2.4c0,1-0.2,1.9-0.7,2.7
			s-1.1,1.4-1.8,1.8c-0.7,0.5-1.6,0.8-2.5,1c-0.9,0.2-1.8,0.3-2.7,0.3c-1.1,0-2.1-0.1-3.1-0.4c-1-0.3-1.8-0.7-2.6-1.3
			c-0.7-0.6-1.3-1.3-1.8-2.2c-0.4-0.9-0.6-1.9-0.6-3.1h2.5c0,0.8,0.2,1.5,0.5,2.1c0.3,0.6,0.7,1.1,1.3,1.5c0.5,0.4,1.1,0.7,1.8,0.9
			c0.7,0.2,1.4,0.3,2.2,0.3c0.6,0,1.2-0.1,1.8-0.2c0.6-0.1,1.1-0.3,1.6-0.6c0.5-0.3,0.9-0.6,1.2-1.1c0.3-0.5,0.4-1,0.4-1.8
			c0-0.7-0.2-1.2-0.5-1.7c-0.4-0.4-0.8-0.8-1.4-1c-0.6-0.3-1.3-0.5-2-0.6c-0.8-0.2-1.5-0.3-2.3-0.5c-0.8-0.2-1.5-0.4-2.3-0.6
			c-0.8-0.2-1.4-0.5-2-0.9c-0.6-0.4-1.1-0.9-1.4-1.5c-0.4-0.6-0.5-1.3-0.5-2.2c0-1,0.2-1.9,0.6-2.6c0.4-0.7,0.9-1.3,1.6-1.8
			c0.7-0.5,1.4-0.8,2.3-1c0.9-0.2,1.7-0.3,2.6-0.3c1,0,1.9,0.1,2.8,0.4c0.9,0.2,1.6,0.6,2.3,1.1c0.7,0.5,1.2,1.2,1.5,1.9
			s0.6,1.7,0.6,2.8h-2.5C94.1,181.4,93.6,180.4,92.7,179.7z"/>
		<path fill="#00273F" d="M103.6,183c0.4-1.2,1-2.3,1.8-3.3c0.8-1,1.8-1.7,3-2.3c1.2-0.6,2.5-0.9,4.1-0.9s2.9,0.3,4.1,0.9
			c1.2,0.6,2.2,1.3,3,2.3c0.8,1,1.4,2.1,1.8,3.3c0.4,1.2,0.6,2.5,0.6,3.9s-0.2,2.6-0.6,3.9c-0.4,1.2-1,2.3-1.8,3.3
			c-0.8,1-1.8,1.7-3,2.3c-1.2,0.6-2.5,0.8-4.1,0.8s-2.9-0.3-4.1-0.8c-1.2-0.6-2.2-1.3-3-2.3c-0.8-1-1.4-2.1-1.8-3.3
			c-0.4-1.2-0.6-2.5-0.6-3.9S103.2,184.2,103.6,183z M106.1,189.8c0.3,1,0.7,1.8,1.2,2.6c0.6,0.8,1.3,1.4,2.1,1.9
			c0.9,0.5,1.9,0.7,3.1,0.7c1.2,0,2.2-0.2,3.1-0.7c0.9-0.5,1.6-1.1,2.1-1.9c0.6-0.8,1-1.6,1.2-2.6c0.3-1,0.4-1.9,0.4-2.9
			s-0.1-2-0.4-2.9c-0.3-1-0.7-1.8-1.2-2.6c-0.6-0.8-1.3-1.4-2.1-1.9c-0.9-0.5-1.9-0.7-3.1-0.7c-1.2,0-2.2,0.2-3.1,0.7
			c-0.9,0.5-1.6,1.1-2.1,1.9c-0.6,0.8-1,1.6-1.2,2.6c-0.3,1-0.4,1.9-0.4,2.9S105.8,188.9,106.1,189.8z"/>
		<path fill="#00273F" d="M140.4,179.8c-1-0.7-2.2-1-3.6-1c-1.2,0-2.2,0.2-3,0.7c-0.8,0.4-1.5,1-2.1,1.8c-0.5,0.7-0.9,1.6-1.2,2.6
			c-0.3,1-0.4,1.9-0.4,3c0,1.1,0.1,2.2,0.4,3.2c0.3,1,0.7,1.9,1.2,2.6c0.5,0.7,1.2,1.3,2.1,1.8c0.8,0.4,1.9,0.7,3,0.7
			c0.9,0,1.6-0.1,2.3-0.4c0.7-0.3,1.3-0.7,1.7-1.2s0.9-1.1,1.1-1.8c0.3-0.7,0.4-1.5,0.5-2.3h2.6c-0.3,2.5-1.1,4.4-2.6,5.8
			c-1.5,1.4-3.4,2.1-6,2.1c-1.5,0-2.9-0.3-4-0.8s-2.1-1.2-2.8-2.2c-0.8-0.9-1.3-2-1.7-3.3c-0.4-1.3-0.6-2.6-0.6-4s0.2-2.8,0.6-4
			c0.4-1.3,1-2.4,1.8-3.3c0.8-0.9,1.8-1.7,2.9-2.2c1.2-0.5,2.5-0.8,4-0.8c1,0,2,0.1,2.9,0.4c0.9,0.3,1.7,0.7,2.5,1.2
			c0.7,0.5,1.3,1.2,1.8,2c0.5,0.8,0.8,1.7,0.9,2.8h-2.6C142.1,181.6,141.4,180.5,140.4,179.8z"/>
		<path fill="#00273F" d="M154.5,177v19.7h-2.6V177H154.5z"/>
		<path fill="#00273F" d="M170.6,177l7.7,19.7h-2.9l-2.2-5.9h-8.3l-2.2,5.9H160l7.7-19.7H170.6z M172.4,188.6l-3.3-9.2h-0.1l-3.3,9.2
			H172.4z"/>
		<path fill="#00273F" d="M181.5,179.2V177h15.7v2.2h-6.6v17.5h-2.6v-17.5H181.5z"/>
		<path fill="#00273F" d="M216.4,177v2.2h-11v6.3h10.2v2.2h-10.2v6.8h11.1v2.2h-13.7V177H216.4z"/>
		<path fill="#00273F" d="M232.9,179.7c-0.9-0.6-2-1-3.4-1c-0.6,0-1.1,0.1-1.6,0.2c-0.5,0.1-1,0.3-1.4,0.6c-0.4,0.3-0.7,0.6-1,1
			c-0.2,0.4-0.4,1-0.4,1.6c0,0.6,0.2,1.1,0.5,1.5c0.4,0.4,0.8,0.7,1.4,0.9c0.6,0.2,1.3,0.4,2,0.6c0.8,0.2,1.5,0.3,2.3,0.5
			c0.8,0.2,1.5,0.4,2.3,0.6c0.8,0.2,1.4,0.6,2,1c0.6,0.4,1.1,1,1.4,1.6c0.4,0.6,0.5,1.5,0.5,2.4c0,1-0.2,1.9-0.7,2.7
			c-0.5,0.7-1.1,1.4-1.8,1.8c-0.7,0.5-1.6,0.8-2.5,1c-0.9,0.2-1.8,0.3-2.7,0.3c-1.1,0-2.1-0.1-3.1-0.4c-1-0.3-1.8-0.7-2.6-1.3
			c-0.7-0.6-1.3-1.3-1.8-2.2c-0.4-0.9-0.6-1.9-0.6-3.1h2.5c0,0.8,0.2,1.5,0.5,2.1c0.3,0.6,0.7,1.1,1.3,1.5c0.5,0.4,1.1,0.7,1.8,0.9
			c0.7,0.2,1.4,0.3,2.2,0.3c0.6,0,1.2-0.1,1.8-0.2c0.6-0.1,1.1-0.3,1.6-0.6c0.5-0.3,0.9-0.6,1.2-1.1c0.3-0.5,0.4-1,0.4-1.8
			c0-0.7-0.2-1.2-0.5-1.7c-0.4-0.4-0.8-0.8-1.4-1c-0.6-0.3-1.3-0.5-2-0.6c-0.8-0.2-1.5-0.3-2.3-0.5s-1.5-0.4-2.3-0.6
			c-0.8-0.2-1.4-0.5-2-0.9c-0.6-0.4-1.1-0.9-1.4-1.5s-0.5-1.3-0.5-2.2c0-1,0.2-1.9,0.6-2.6c0.4-0.7,0.9-1.3,1.6-1.8
			c0.7-0.5,1.4-0.8,2.3-1c0.9-0.2,1.7-0.3,2.6-0.3c1,0,1.9,0.1,2.8,0.4c0.9,0.2,1.6,0.6,2.3,1.1c0.7,0.5,1.2,1.2,1.5,1.9
			s0.6,1.7,0.6,2.8h-2.5C234.3,181.4,233.8,180.4,232.9,179.7z"/>
	</g>
	<path fill="#00273F" d="M217.9,84.2c-3.3-5.1-7.4-9.2-12-12.2c-4.6-3-9.2-5.2-13.8-6.6c-4.5-1.3-8-2.2-10.5-2.7
		c-8.4-2.1-15.2-3.9-20.2-5.2c-5-1.3-8.9-2.7-11.7-4c-3.1-1.4-4.3-2.7-4.8-3.5c-0.7-1.2-1.1-2.9-1.1-5c0-2.3,0.5-4.3,1.4-5.7
		c1-1.6,2.4-2.9,4-3.9c1.7-1.1,3.5-1.8,5.6-2.3c2.2-0.5,4.4-0.7,6.6-0.7c3.4,0,6.6,0.3,9.5,0.9c2.7,0.6,5.2,1.5,7.3,2.8
		c2,1.3,3.6,3,4.8,5.2c1.2,2.3,2,5.2,2.2,8.8l0.2,2.4h33.3V50c0-8.1-1.6-15.1-4.7-20.9c-3.1-5.7-7.4-10.5-12.6-14.2
		c-5.2-3.6-11.3-6.3-18-8c-12.3-3-26-3.5-39.3,0.1c-6.2,1.7-11.9,4.3-16.9,7.9c-5,3.6-9.1,8.1-12.2,13.4c-3.1,5.4-4.7,11.8-4.7,19.1
		c0,6.5,1.3,12.2,3.8,16.8c2.5,4.6,5.7,8.5,9.8,11.6c3.9,3,8.4,5.5,13.3,7.4c4.8,1.8,9.8,3.4,14.8,4.6c4.8,1.4,9.7,2.6,14.5,3.8
		c4.6,1.1,8.7,2.4,12.3,3.8c3.4,1.4,6.2,3.1,8.2,5.1c1.8,1.8,2.7,4,2.7,6.9c0,2.8-0.7,5-2.1,6.7c-1.5,1.9-3.4,3.4-5.6,4.4
		c-2.4,1.1-5,1.9-7.7,2.3c-2.8,0.4-5.5,0.6-8,0.6c-3.6,0-7.2-0.4-10.6-1.3c-3.3-0.9-6.2-2.2-8.6-3.9c-2.3-1.7-4.2-3.9-5.7-6.7l0,0
		c-1.4-2.7-2.1-6.2-2.1-10.2v-2.6h-33.5l0,2.5c-0.1,8.6,1.5,16.2,4.8,22.5c3.3,6.3,7.8,11.6,13.4,15.6c5.5,4,12,7,19.2,8.9
		c7.1,1.9,14.5,2.8,22,2.8c9.3,0,17.6-1.1,24.7-3.3c7.2-2.2,13.3-5.3,18.2-9.3c5-4,8.7-8.9,11.3-14.5c2.5-5.5,3.8-11.6,3.8-18
		C223.1,96.1,221.4,89.4,217.9,84.2z"/>
	<path fill="#00273F" d="M59,100.3c0,2.3-0.1,4.7-0.3,7.2c-0.2,2.3-0.7,4.4-1.5,6.3c-0.7,1.7-1.9,3.1-3.6,4.2c-1.7,1.1-4.2,1.6-7.6,1.6
		c-3.1,0-5.5-0.5-7.3-1.4c-1.8-0.9-3.2-2.1-4.2-3.7c-1.1-1.6-1.8-3.7-2.2-6.1c-0.5-2.6-0.7-5.4-0.7-8.5v-8.5H0v14.1
		c0,7.7,1.3,14.4,4,19.9c2.6,5.5,6.2,10.1,10.6,13.6c4.3,3.5,9.4,6.1,14.9,7.7c5.4,1.6,11.2,2.4,17,2.4c10.3,0,18.7-1.6,24.9-4.9
		c6.2-3.2,11-7.3,14.4-12.2c3.3-4.8,5.5-10.1,6.4-15.7v0c0.9-5.4,1.3-10.3,1.3-14.8V7.7H59V100.3z"/>
	<polygon fill="#00273F" points="360.2,147.9 308.4,9.4 274.8,9.4 222.4,147.9 257.5,147.9 291.3,52 306.8,97 280.8,97 272.2,121.6 
		315.2,121.6 324.2,147.9 	"/>
</g>
</svg>
